<?xml version="1.0" encoding="UTF-8"?>
<svg version="1.1" xmlns="http://www.w3.org/2000/svg" width="348" height="241">
<path d="M0 0 C114.84 0 229.68 0 348 0 C348 79.53 348 159.06 348 241 C233.16 241 118.32 241 0 241 C0 161.47 0 81.94 0 0 Z " fill="#FEFEFE" transform="translate(0,0)"/>
<path d="M0 0 C1.79776954 0.01028517 3.59553974 0.02045569 5.39331055 0.03051758 C9.1165015 0.05493053 12.83945425 0.08905353 16.5625 0.12988281 C20.27868223 0.17059796 23.99456505 0.1985171 27.7109375 0.21386719 C32.1347007 0.23313469 36.55747939 0.27833712 40.98080444 0.34310913 C42.63862085 0.36409567 44.29655625 0.37734721 45.95449829 0.38223267 C56.09064404 0.42299413 63.94729431 1.71825242 73.1875 6.1875 C76.30031003 7.3206226 79.45505451 8.28999062 82.625 9.25 C83.36814453 9.48009766 84.11128906 9.71019531 84.87695312 9.94726562 C87.31204344 10.69985493 89.7496902 11.44376917 92.1875 12.1875 C102.58899862 15.37997175 112.98070242 18.60362758 123.37109375 21.83203125 C124.57894531 22.20714844 125.78679687 22.58226562 127.03125 22.96875 C128.21589844 23.34 129.40054687 23.71125 130.62109375 24.09375 C133.0215825 24.82993494 135.43090971 25.53783102 137.84765625 26.21875 C139.00136719 26.54875 140.15507812 26.87875 141.34375 27.21875 C142.37306641 27.50298828 143.40238281 27.78722656 144.46289062 28.08007812 C147.55450855 29.33667122 149.15047088 30.55242738 151.1875 33.1875 C151.56225586 35.18286133 151.56225586 35.18286133 151.40234375 37.26953125 C151.36689453 38.03716797 151.33144531 38.80480469 151.29492188 39.59570312 C151.18244482 41.18718887 151.06532407 42.77835384 150.94335938 44.36914062 C150.70113976 49.83964788 151.59676118 52.29904922 155.04125977 56.5144043 C158.01084902 60.84892935 156.72974602 67.22565735 156.1875 72.1875 C155.1974759 76.19410759 153.53476841 79.64357601 150.1875 82.1875 C145.16710823 85.03967679 139.54069812 85.70601311 133.9375 86.8125 C132.83019531 87.04195313 131.72289062 87.27140625 130.58203125 87.5078125 C124.6991822 88.6829833 119.18861308 89.67596269 113.1875 89.1875 C110.6875 87.1875 110.6875 87.1875 109.1875 85.1875 C108.76791016 85.94933594 108.76791016 85.94933594 108.33984375 86.7265625 C104.26766435 93.71866475 99.36127947 99.14675107 91.4921875 101.71875 C84.11033453 103.22014382 76.66572907 103.20400203 70.1875 99.1875 C64.27011478 93.88709333 62.0255818 87.79277423 60.1875 80.1875 C60.00574219 80.88617188 59.82398438 81.58484375 59.63671875 82.3046875 C59.38535156 83.21476562 59.13398438 84.12484375 58.875 85.0625 C58.63136719 85.96742188 58.38773438 86.87234375 58.13671875 87.8046875 C57.1875 90.1875 57.1875 90.1875 54.1875 92.1875 C51.64944458 92.4659729 51.64944458 92.4659729 48.55126953 92.50634766 C47.37579056 92.52618713 46.20031158 92.54602661 44.98921204 92.56646729 C43.69597519 92.57804871 42.40273834 92.58963013 41.0703125 92.6015625 C39.6923468 92.62064999 38.31439157 92.64050602 36.93644714 92.66107178 C33.18031324 92.71406534 29.42415273 92.75374751 25.66781998 92.78960419 C23.31623089 92.81246373 20.9646827 92.8378706 18.61312866 92.86407471 C9.45114184 92.96537985 0.28910255 93.0479669 -8.87315655 93.12018013 C-15.13385129 93.1706355 -21.39429038 93.23584694 -27.65478516 93.30664062 C-35.68787543 93.39676427 -43.72086965 93.46648031 -51.75433731 93.51252556 C-56.05264979 93.53737259 -60.3505469 93.57005827 -64.64862061 93.62237549 C-68.70274303 93.67102923 -72.75630208 93.69552174 -76.81070518 93.70145416 C-78.30424839 93.70771159 -79.79778353 93.72255877 -81.29114723 93.74654388 C-83.33278908 93.77793812 -85.37486947 93.77534459 -87.41674805 93.77099609 C-88.56161179 93.77908295 -89.70647552 93.7871698 -90.8860321 93.79550171 C-93.8125 93.1875 -93.8125 93.1875 -96.16047668 90.87295532 C-98.22821203 87.51173709 -98.62423871 84.78282981 -99.0625 80.875 C-99.21203125 79.62074219 -99.3615625 78.36648437 -99.515625 77.07421875 C-99.61359375 76.12160156 -99.7115625 75.16898437 -99.8125 74.1875 C-99.73 75.280625 -99.6475 76.37375 -99.5625 77.5 C-99.60137467 84.80843877 -102.08378528 91.79863944 -107.0625 97.1875 C-112.54260719 102.04963766 -118.38341256 103.76763373 -125.65625 103.46875 C-132.2714779 102.60589419 -138.04240058 98.68815866 -142.8125 94.1875 C-144.71721363 91.63407955 -146.32621725 89.00286251 -147.8125 86.1875 C-148.67875 87.363125 -148.67875 87.363125 -149.5625 88.5625 C-152.08183221 91.50172091 -153.95922273 92.87189239 -157.78515625 93.5234375 C-165.30901408 93.66407036 -172.10394891 91.58122946 -178.42993164 87.49804688 C-180.8125 85.1875 -180.8125 85.1875 -181.4753418 82.29003906 C-181.51479963 78.67051156 -181.54238921 75.05716951 -181.5 71.4375 C-181.52771484 70.18710938 -181.55542969 68.93671875 -181.58398438 67.6484375 C-181.56560743 60.69460336 -181.12388397 56.03968132 -176.41210938 50.74780273 C-175.62030273 49.97545288 -175.62030273 49.97545288 -174.8125 49.1875 C-174.25868652 48.62313232 -173.70487305 48.05876465 -173.13427734 47.47729492 C-164.1293533 38.6631902 -150.63719597 36.14440158 -138.8125 33.1875 C-137.90628906 32.960625 -137.00007813 32.73375 -136.06640625 32.5 C-125.56153338 30.16962959 -114.57465884 29.28136441 -103.84130859 28.8984375 C-86.721356 28.25281683 -73.28795347 21.96007762 -58.546875 13.84375 C-39.4152417 3.36483267 -21.72481365 -0.18211749 0 0 Z " fill="#F8F8F8" transform="translate(186.8125,108.8125)"/>
<path d="M0 0 C1.79776954 0.01028517 3.59553974 0.02045569 5.39331055 0.03051758 C9.1165015 0.05493053 12.83945425 0.08905353 16.5625 0.12988281 C20.27868223 0.17059796 23.99456505 0.1985171 27.7109375 0.21386719 C32.1347007 0.23313469 36.55747939 0.27833712 40.98080444 0.34310913 C42.63862085 0.36409567 44.29655625 0.37734721 45.95449829 0.38223267 C56.09064404 0.42299413 63.94729431 1.71825242 73.1875 6.1875 C76.30031003 7.3206226 79.45505451 8.28999062 82.625 9.25 C83.36814453 9.48009766 84.11128906 9.71019531 84.87695312 9.94726562 C87.31204344 10.69985493 89.7496902 11.44376917 92.1875 12.1875 C102.58899862 15.37997175 112.98070242 18.60362758 123.37109375 21.83203125 C124.57894531 22.20714844 125.78679687 22.58226562 127.03125 22.96875 C128.21589844 23.34 129.40054687 23.71125 130.62109375 24.09375 C133.0215825 24.82993494 135.43090971 25.53783102 137.84765625 26.21875 C139.00136719 26.54875 140.15507812 26.87875 141.34375 27.21875 C142.37306641 27.50298828 143.40238281 27.78722656 144.46289062 28.08007812 C147.55450855 29.33667122 149.15047088 30.55242738 151.1875 33.1875 C151.56225586 35.18286133 151.56225586 35.18286133 151.40234375 37.26953125 C151.36689453 38.03716797 151.33144531 38.80480469 151.29492188 39.59570312 C151.18244482 41.18718887 151.06532407 42.77835384 150.94335938 44.36914062 C150.70113976 49.83964788 151.59676118 52.29904922 155.04125977 56.5144043 C158.01084902 60.84892935 156.72974602 67.22565735 156.1875 72.1875 C155.1974759 76.19410759 153.53476841 79.64357601 150.1875 82.1875 C145.16710823 85.03967679 139.54069812 85.70601311 133.9375 86.8125 C132.83019531 87.04195313 131.72289062 87.27140625 130.58203125 87.5078125 C124.6991822 88.6829833 119.18861308 89.67596269 113.1875 89.1875 C110.6875 87.1875 110.6875 87.1875 109.1875 85.1875 C108.76791016 85.94933594 108.76791016 85.94933594 108.33984375 86.7265625 C104.26766435 93.71866475 99.36127947 99.14675107 91.4921875 101.71875 C84.11033453 103.22014382 76.66572907 103.20400203 70.1875 99.1875 C64.27011478 93.88709333 62.0255818 87.79277423 60.1875 80.1875 C60.00574219 80.88617188 59.82398438 81.58484375 59.63671875 82.3046875 C59.38535156 83.21476562 59.13398438 84.12484375 58.875 85.0625 C58.63136719 85.96742188 58.38773438 86.87234375 58.13671875 87.8046875 C57.1875 90.1875 57.1875 90.1875 54.1875 92.1875 C51.64944458 92.4659729 51.64944458 92.4659729 48.55126953 92.50634766 C47.37579056 92.52618713 46.20031158 92.54602661 44.98921204 92.56646729 C43.69597519 92.57804871 42.40273834 92.58963013 41.0703125 92.6015625 C39.6923468 92.62064999 38.31439157 92.64050602 36.93644714 92.66107178 C33.18031324 92.71406534 29.42415273 92.75374751 25.66781998 92.78960419 C23.31623089 92.81246373 20.9646827 92.8378706 18.61312866 92.86407471 C9.45114184 92.96537985 0.28910255 93.0479669 -8.87315655 93.12018013 C-15.13385129 93.1706355 -21.39429038 93.23584694 -27.65478516 93.30664062 C-35.68787543 93.39676427 -43.72086965 93.46648031 -51.75433731 93.51252556 C-56.05264979 93.53737259 -60.3505469 93.57005827 -64.64862061 93.62237549 C-68.70274303 93.67102923 -72.75630208 93.69552174 -76.81070518 93.70145416 C-78.30424839 93.70771159 -79.79778353 93.72255877 -81.29114723 93.74654388 C-83.33278908 93.77793812 -85.37486947 93.77534459 -87.41674805 93.77099609 C-88.56161179 93.77908295 -89.70647552 93.7871698 -90.8860321 93.79550171 C-93.8125 93.1875 -93.8125 93.1875 -96.16047668 90.87295532 C-98.22821203 87.51173709 -98.62423871 84.78282981 -99.0625 80.875 C-99.21203125 79.62074219 -99.3615625 78.36648437 -99.515625 77.07421875 C-99.61359375 76.12160156 -99.7115625 75.16898437 -99.8125 74.1875 C-99.73 75.280625 -99.6475 76.37375 -99.5625 77.5 C-99.60137467 84.80843877 -102.08378528 91.79863944 -107.0625 97.1875 C-112.54260719 102.04963766 -118.38341256 103.76763373 -125.65625 103.46875 C-132.2714779 102.60589419 -138.04240058 98.68815866 -142.8125 94.1875 C-144.71721363 91.63407955 -146.32621725 89.00286251 -147.8125 86.1875 C-148.67875 87.363125 -148.67875 87.363125 -149.5625 88.5625 C-152.08183221 91.50172091 -153.95922273 92.87189239 -157.78515625 93.5234375 C-165.30901408 93.66407036 -172.10394891 91.58122946 -178.42993164 87.49804688 C-180.8125 85.1875 -180.8125 85.1875 -181.4753418 82.29003906 C-181.51479963 78.67051156 -181.54238921 75.05716951 -181.5 71.4375 C-181.52771484 70.18710938 -181.55542969 68.93671875 -181.58398438 67.6484375 C-181.56560743 60.69460336 -181.12388397 56.03968132 -176.41210938 50.74780273 C-175.62030273 49.97545288 -175.62030273 49.97545288 -174.8125 49.1875 C-174.25868652 48.62313232 -173.70487305 48.05876465 -173.13427734 47.47729492 C-164.1293533 38.6631902 -150.63719597 36.14440158 -138.8125 33.1875 C-137.90628906 32.960625 -137.00007813 32.73375 -136.06640625 32.5 C-125.56153338 30.16962959 -114.57465884 29.28136441 -103.84130859 28.8984375 C-86.721356 28.25281683 -73.28795347 21.96007762 -58.546875 13.84375 C-39.4152417 3.36483267 -21.72481365 -0.18211749 0 0 Z M-82.01953125 29.62109375 C-85.95600004 31.8288196 -88.83023811 32.31895141 -93.2734375 32.3984375 C-135.39093668 32.84259119 -135.39093668 32.84259119 -172.29296875 50.40429688 C-178.07107514 57.18503098 -178.34263111 64.71138829 -178.0625 73.25 C-178.04445312 74.30638672 -178.02640625 75.36277344 -178.0078125 76.45117188 C-177.96112013 79.0309255 -177.89565588 81.60870817 -177.8125 84.1875 C-169.09790319 87.25401115 -161.05041351 88.88511331 -151.8125 89.1875 C-151.85890625 88.22070312 -151.9053125 87.25390625 -151.953125 86.2578125 C-152.25313636 75.43597425 -151.0892226 66.84877945 -143.45703125 58.65625 C-137.00097705 52.89027285 -130.37132592 51.81193642 -121.9765625 51.9140625 C-114.20682025 52.58552171 -108.42140173 56.01303979 -102.6015625 61.015625 C-97.61209206 67.07271138 -96.06153101 73.54879641 -95.0625 81.1875 C-94.84047569 82.79310144 -94.61742664 84.39856139 -94.39355469 86.00390625 C-94.19986979 87.3984375 -94.0061849 88.79296875 -93.8125 90.1875 C-92.9523378 90.15917084 -92.0921756 90.13084167 -91.20594788 90.10165405 C-70.42783821 89.43875928 -49.65947377 89.0913564 -28.87109375 88.9765625 C-26.51819789 88.96226151 -24.16530279 88.94783628 -21.81240845 88.93328857 C-12.14750954 88.87496014 -2.48265094 88.81891977 7.18237305 88.78613281 C13.19147056 88.76524035 19.20033717 88.73005824 25.2093029 88.68537521 C27.47429657 88.67125862 29.7393305 88.66250263 32.00436592 88.65932083 C35.13670728 88.6544319 38.26842058 88.63135115 41.40063477 88.60400391 C42.78491417 88.60851311 42.78491417 88.60851311 44.19715881 88.6131134 C48.96358897 88.55107456 52.37492901 88.39814034 56.1875 85.1875 C56.78653868 82.86521557 56.78653868 82.86521557 56.625 80.25 C57.05790001 71.64896033 60.69736224 64.08676894 67 58.1875 C73.18164657 53.38997923 79.55080975 50.30786494 87.5078125 50.6796875 C95.59286329 52.21183998 102.74222016 56.51745806 107.7890625 62.9921875 C112.24722325 69.9907527 113.83773154 76.96794124 114.1875 85.1875 C126.57632089 85.96585524 136.4947641 83.08960999 146.1875 75.1875 C149.74867064 71.59225118 152.03313734 68.67967241 152.5625 63.5625 C152.49778762 58.48720042 150.39047222 55.01522779 147.1875 51.1875 C143.51908513 48.17751857 140.87251842 47.86063825 136.1875 48.1875 C138.8275 45.8775 141.4675 43.5675 144.1875 41.1875 C143.8575 42.5075 143.5275 43.8275 143.1875 45.1875 C144.8375 44.8575 146.4875 44.5275 148.1875 44.1875 C148.6407054 40.28993355 148.59276042 38.70328599 146.125 35.5625 C140.67873791 31.15913916 135.26530123 28.62641167 128.55566406 26.76147461 C127.82794296 26.55113083 127.10022186 26.34078705 126.35044861 26.12406921 C124.78458263 25.67268151 123.21751995 25.22542806 121.64939117 24.78196526 C119.16705399 24.07963819 116.68830161 23.36574469 114.21014404 22.64881897 C108.0613412 20.87246804 101.90710393 19.11526751 95.75262451 17.35870361 C90.53690525 15.86943146 85.32356037 14.37234327 80.11321259 12.86438179 C77.67191685 12.16135495 75.22749656 11.47004359 72.78277588 10.77903748 C71.28893351 10.34798954 69.79525183 9.91638421 68.30175781 9.48413086 C67.62223557 9.29548462 66.94271332 9.10683838 66.24259949 8.91247559 C62.83094812 7.91117302 60.40856359 7.04224943 58.1875 4.1875 C57.259375 4.6825 57.259375 4.6825 56.3125 5.1875 C49.81033285 7.26819349 42.93942749 6.29524007 36.31713867 5.11938477 C-6.17296264 -2.39485988 -45.50693379 8.15050997 -82.01953125 29.62109375 Z " fill="#111111" transform="translate(186.8125,108.8125)"/>
<path d="M0 0 C22.13909607 -0.96038524 22.13909607 -0.96038524 30.890625 3.50390625 C34.95591531 5.45994418 39.13059823 6.74284123 43.4375 8.0625 C44.18862061 8.29533691 44.93974121 8.52817383 45.71362305 8.76806641 C48.14082125 9.51733307 50.57034035 10.25875563 53 11 C63.40149862 14.19247175 73.79320242 17.41612758 84.18359375 20.64453125 C85.99537109 21.20720703 85.99537109 21.20720703 87.84375 21.78125 C89.02839844 22.1525 90.21304688 22.52375 91.43359375 22.90625 C93.8340825 23.64243494 96.24340971 24.35033102 98.66015625 25.03125 C99.81386719 25.36125 100.96757812 25.69125 102.15625 26.03125 C103.70022461 26.45760742 103.70022461 26.45760742 105.27539062 26.89257812 C108.36700855 28.14917122 109.96297088 29.36492738 112 32 C112.37475586 33.99536133 112.37475586 33.99536133 112.21484375 36.08203125 C112.16166992 37.23348633 112.16166992 37.23348633 112.10742188 38.40820312 C111.99494482 39.99968887 111.87782407 41.59085384 111.75585938 43.18164062 C111.51363976 48.65214788 112.40926118 51.11154922 115.85375977 55.3269043 C118.82334902 59.66142935 117.54224602 66.03815735 117 71 C116.0099759 75.00660759 114.34726841 78.45607601 111 81 C105.97960823 83.85217679 100.35319812 84.51851311 94.75 85.625 C93.64269531 85.85445313 92.53539062 86.08390625 91.39453125 86.3203125 C85.5116822 87.4954833 80.00111308 88.48846269 74 88 C71.5 86 71.5 86 70 84 C69.58041016 84.76183594 69.58041016 84.76183594 69.15234375 85.5390625 C65.08016435 92.53116475 60.17377947 97.95925107 52.3046875 100.53125 C44.92283453 102.03264382 37.47822907 102.01650203 31 98 C25.08261478 92.69959333 22.8380818 86.60527423 21 79 C20.34 79.99 19.68 80.98 19 82 C18.01 82.495 18.01 82.495 17 83 C15.97477651 74.41849966 18.22452706 68.13373118 23 61 C29.04893716 54.04485502 36.4690306 49.06158082 45.8125 48.375 C53.80947082 48.73623388 61.22865361 52.9991206 67 58.375 C72.48235759 64.40559335 75.16918185 71.1421795 75.0625 79.25 C75.05347656 80.14203125 75.04445313 81.0340625 75.03515625 81.953125 C75.02355469 82.62859375 75.01195312 83.3040625 75 84 C88.15020974 83.03209116 100.84140228 80.47480338 110 70 C112.31585694 66.11155101 112.67108105 62.44073388 112 58 C110.64550256 54.30990968 108.72309625 51.60583739 105.6875 49.0625 C102.33218371 47.73597961 99.57519482 47.78969442 96 48 C96.9080162 46.86800647 97.82683826 45.74467637 98.75 44.625 C99.26046875 43.99851563 99.7709375 43.37203125 100.296875 42.7265625 C102.08199481 40.91687682 103.67949644 39.99882545 106 39 C105.67 40.32 105.34 41.64 105 43 C105.99 43 106.98 43 108 43 C108.43890778 39.22539305 108.3659873 37.51238222 106.125 34.375 C98.35157475 28.46719681 88.15860911 26.46687252 78.8854847 23.8407917 C76.55050157 23.1780217 74.21824064 22.50638125 71.88658142 21.83201599 C65.26546618 19.9173782 58.64280377 18.00863818 52.01147461 16.12963867 C47.9362145 14.97421457 43.86663777 13.80043013 39.80016899 12.61445427 C38.25560051 12.16781063 36.70901326 11.72808678 35.16044807 11.29550362 C33.00133936 10.69164061 30.85025694 10.06462372 28.69946289 9.43188477 C27.4749794 9.0819899 26.25049591 8.73209503 24.98890686 8.37159729 C21.4912062 6.76651658 20.70452623 5.36130976 19 2 C16.90381897 1.22903798 16.90381897 1.22903798 14.55078125 1.29296875 C13.70322266 1.26396484 12.85566406 1.23496094 11.98242188 1.20507812 C11.10134766 1.19927734 10.22027344 1.19347656 9.3125 1.1875 C8.41982422 1.16236328 7.52714844 1.13722656 6.60742188 1.11132812 C4.40450561 1.05242662 2.20357681 1.01617246 0 1 C0 0.67 0 0.34 0 0 Z " fill="#151515" transform="translate(226,110)"/>
<path d="M0 0 C1.5969236 0.01069455 3.19384743 0.02135502 4.79077148 0.03198242 C16.03468441 0.1398754 27.11285462 0.70080297 38.25 2.3125 C39.04599609 2.41965332 39.84199219 2.52680664 40.66210938 2.63720703 C50.72102173 3.99860829 60.41419358 5.92691263 70.18408203 8.73144531 C74.33634624 9.89930029 78.51440873 10.97194662 82.6875 12.0625 C84.33208713 12.49457903 85.9766233 12.92685209 87.62109375 13.359375 C88.81863281 13.67390625 90.01617187 13.9884375 91.25 14.3125 C91.25 14.9725 91.25 15.6325 91.25 16.3125 C88.7739837 17.1358134 86.29484514 17.94617191 83.8125 18.75 C83.12478516 18.98009766 82.43707031 19.21019531 81.72851562 19.44726562 C81.03564453 19.66962891 80.34277344 19.89199219 79.62890625 20.12109375 C79.0057251 20.32532959 78.38254395 20.52956543 77.74047852 20.73999023 C70.07449232 22.50224272 62.14064914 22.54399891 54.3125 22.77734375 C52.56310371 22.83374275 52.56310371 22.83374275 50.77836609 22.89128113 C46.93567728 23.01427405 43.09285066 23.13218171 39.25 23.25 C36.5661526 23.33483797 33.88231504 23.41994803 31.19848633 23.50537109 C24.0476673 23.73216803 16.89668992 23.95364363 9.7456665 24.17388916 C5.17075078 24.31481205 0.59587105 24.45688176 -3.97900391 24.59912109 C-22.56913614 25.17684527 -41.15946224 25.74796784 -59.75 26.3125 C-59.75 28.6225 -59.75 30.9325 -59.75 33.3125 C-57.77 33.6425 -55.79 33.9725 -53.75 34.3125 C-53.75 34.9725 -53.75 35.6325 -53.75 36.3125 C-56.39 36.3125 -59.03 36.3125 -61.75 36.3125 C-61.9975 35.673125 -62.245 35.03375 -62.5 34.375 C-63.53364885 32.12773431 -63.53364885 32.12773431 -65.6875 31.8125 C-66.368125 31.6475 -67.04875 31.4825 -67.75 31.3125 C-68.17023438 30.64734375 -68.59046875 29.9821875 -69.0234375 29.296875 C-70.61449787 27.03236563 -70.61449787 27.03236563 -73.44921875 26.921875 C-74.43535156 26.96828125 -75.42148438 27.0146875 -76.4375 27.0625 C-77.43136719 27.09859375 -78.42523438 27.1346875 -79.44921875 27.171875 C-80.20847656 27.21828125 -80.96773438 27.2646875 -81.75 27.3125 C-70.24487548 17.66304073 -56.91619406 10.83384477 -42.75 6 C-42.08814697 5.76990234 -41.42629395 5.53980469 -40.74438477 5.30273438 C-27.29595505 0.94815678 -14.03379695 -0.1763372 0 0 Z " fill="#0D0D0D" transform="translate(190.75,117.6875)"/>
<path d="M0 0 C4.48879523 2.35269634 7.99932904 5.26259932 11.34765625 9.04296875 C11.01765625 10.03296875 10.68765625 11.02296875 10.34765625 12.04296875 C7.87265625 9.56796875 7.87265625 9.56796875 5.34765625 7.04296875 C5.34765625 7.37296875 5.34765625 7.70296875 5.34765625 8.04296875 C6.00765625 8.70296875 6.66765625 9.36296875 7.34765625 10.04296875 C7.34765625 11.36296875 7.34765625 12.68296875 7.34765625 14.04296875 C8.33765625 14.37296875 9.32765625 14.70296875 10.34765625 15.04296875 C12.19672893 19.91976277 12.40985152 26.42226862 10.453125 31.25 C9.34765625 33.16796875 9.34765625 33.16796875 7.34765625 36.04296875 C1.3715477 35.48705168 -1.5078944 33.1874181 -5.65234375 29.04296875 C-4.99234375 30.07421875 -4.33234375 31.10546875 -3.65234375 32.16796875 C-1.70449096 35.58537595 -1.00379362 38.05901795 -1.65234375 42.04296875 C-5.9310882 44.89546505 -9.62959076 44.65784854 -14.65234375 44.04296875 C-17.57289371 43.07737976 -20.219208 41.94246637 -22.65234375 40.04296875 C-23.14734375 38.55796875 -23.14734375 38.55796875 -23.65234375 37.04296875 C-22.33234375 37.04296875 -21.01234375 37.04296875 -19.65234375 37.04296875 C-19.32234375 37.70296875 -18.99234375 38.36296875 -18.65234375 39.04296875 C-17.81660552 37.3983553 -16.98381493 35.75224362 -16.15234375 34.10546875 C-15.68828125 33.18894531 -15.22421875 32.27242187 -14.74609375 31.328125 C-13.58038904 29.31487183 -13.58038904 29.31487183 -13.65234375 28.04296875 C-14.00425781 28.53667969 -14.35617188 29.03039062 -14.71875 29.5390625 C-17.56323034 33.23020279 -18.84516583 34.84768377 -23.52734375 35.98046875 C-24.55859375 36.00109375 -25.58984375 36.02171875 -26.65234375 36.04296875 C-30.79280089 31.00241223 -31.03660954 26.32087482 -31.01953125 19.93359375 C-30.51725465 15.97950139 -28.94710492 13.28657216 -26.74609375 10.015625 C-25.32907205 7.8358559 -25.32907205 7.8358559 -25.65234375 4.04296875 C-17.62154101 -1.03293366 -9.25617101 -3.33985552 0 0 Z " fill="#E3E3E3" transform="translate(72.65234375,163.95703125)"/>
<path d="M0 0 C4.20474592 2.36305366 6.81563362 4.93782485 9.5625 8.875 C9.2325 9.535 8.9025 10.195 8.5625 10.875 C7.2425 9.555 5.9225 8.235 4.5625 6.875 C4.85125 7.761875 5.14 8.64875 5.4375 9.5625 C5.5625 12.875 5.5625 12.875 3.1875 15.6875 C-0.67583195 18.53032917 -4.76022915 18.76066671 -9.4375 18.875 C-9.4375 19.535 -9.4375 20.195 -9.4375 20.875 C-8.880625 20.730625 -8.32375 20.58625 -7.75 20.4375 C-2.49613683 19.15953328 2.15958529 18.67853037 7.5625 18.875 C6.5725 17.885 5.5825 16.895 4.5625 15.875 C5.5525 14.885 6.5425 13.895 7.5625 12.875 C10.41241538 17.14987307 10.06588323 20.85597305 9.5625 25.875 C7.74027778 32.69722222 7.74027778 32.69722222 5.5625 34.875 C3.4375 35.3125 3.4375 35.3125 0.5625 34.875 C-2.35856674 32.81669559 -4.91472237 30.39777763 -7.4375 27.875 C-5.7875 31.175 -4.1375 34.475 -2.4375 37.875 C-2.1075 37.215 -1.7775 36.555 -1.4375 35.875 C-0.1175 35.875 1.2025 35.875 2.5625 35.875 C1.59576324 38.33763469 1.03048427 39.61479298 -1.3203125 40.921875 C-6.55811807 42.56439243 -10.94364137 43.4433302 -16.4375 42.875 C-18.4375 41.75 -18.4375 41.75 -19.4375 39.875 C-20.00639651 36.74606921 -19.96954606 34.76174343 -18.3125 32 C-17.41429018 30.77516842 -16.48784294 29.57042296 -15.53125 28.390625 C-14.24243824 26.91621115 -14.24243824 26.91621115 -14.4375 24.875 C-14.86160156 25.51308594 -15.28570312 26.15117187 -15.72265625 26.80859375 C-20.52196866 33.56982289 -20.52196866 33.56982289 -25.1875 35.125 C-28.4375 34.875 -28.4375 34.875 -30.3125 33.6875 C-33.23737012 28.97520925 -32.80936954 23.22819179 -32.4375 17.875 C-31.4375 14.75 -31.4375 14.75 -30.4375 12.875 C-29.4475 13.865 -28.4575 14.855 -27.4375 15.875 C-28.0975 16.535 -28.7575 17.195 -29.4375 17.875 C-27.8551994 18.21320166 -26.27160625 18.54535939 -24.6875 18.875 C-23.80578125 19.060625 -22.9240625 19.24625 -22.015625 19.4375 C-19.21606035 19.98653675 -19.21606035 19.98653675 -15.4375 19.875 C-16.12457031 19.70484375 -16.81164062 19.5346875 -17.51953125 19.359375 C-18.42058594 19.11703125 -19.32164062 18.8746875 -20.25 18.625 C-21.14332031 18.39296875 -22.03664063 18.1609375 -22.95703125 17.921875 C-25.86336955 16.69526293 -26.92530864 15.62163329 -28.4375 12.875 C-28.15637936 10.86699544 -27.82682033 8.86485949 -27.4375 6.875 C-28.0975 6.215 -28.7575 5.555 -29.4375 4.875 C-28.00292672 3.8915504 -26.56472594 2.91339079 -25.125 1.9375 C-24.32449219 1.39222656 -23.52398437 0.84695312 -22.69921875 0.28515625 C-15.93985361 -3.92923203 -7.01603086 -3.28678923 0 0 Z " fill="#EBEBEB" transform="translate(283.4375,165.125)"/>
<path d="M0 0 C22.9969419 0 22.9969419 0 28 4 C32.94784092 10.06110513 33.63435469 15.42234493 33 23 C31.36511994 28.24882544 29.2103868 31.475025 25 35 C19 38 19 38 0 38 C0 25.46 0 12.92 0 0 Z " fill="#0A0A0A" transform="translate(160,9)"/>
<path d="M0 0 C22.9969419 0 22.9969419 0 28 4 C32.94784092 10.06110513 33.63435469 15.42234493 33 23 C31.36511994 28.24882544 29.2103868 31.475025 25 35 C19 38 19 38 0 38 C0 25.46 0 12.92 0 0 Z " fill="#0A0A0A" transform="translate(121,9)"/>
<path d="M0 0 C3.17625 -0.0825 6.3525 -0.165 9.625 -0.25 C10.6145166 -0.28641602 11.6040332 -0.32283203 12.62353516 -0.36035156 C18.2827427 -0.43127755 21.5264621 0.18973112 26 4 C28.3941161 6.3941161 28.29598923 7.03786311 28.3125 10.3125 C28.20446169 15.48171754 26.64371236 18.35628764 23 22 C23.721875 23.07121094 24.44375 24.14242187 25.1875 25.24609375 C26.1251205 26.6431483 27.06261397 28.04028812 28 29.4375 C28.47695313 30.14455078 28.95390625 30.85160156 29.4453125 31.58007812 C29.89648438 32.25361328 30.34765625 32.92714844 30.8125 33.62109375 C31.23144531 34.2442749 31.65039062 34.86745605 32.08203125 35.50952148 C33 37 33 37 33 38 C28.79251915 38.74615424 25.16995907 39.04898099 21 38 C17.65829349 34.30915997 14 29.1683653 14 24 C13.01 24 12.02 24 11 24 C11 28.62 11 33.24 11 38 C7.37 38 3.74 38 0 38 C0 25.46 0 12.92 0 0 Z " fill="#0A0A0A" transform="translate(238,9)"/>
<path d="M0 0 C1.93166016 0.01740234 1.93166016 0.01740234 3.90234375 0.03515625 C5.19269531 0.04417969 6.48304688 0.05320312 7.8125 0.0625 C8.81152344 0.07410156 9.81054688 0.08570313 10.83984375 0.09765625 C12.55471185 5.02524157 14.263544 9.95486233 15.96679688 14.88647461 C16.54716892 16.56413285 17.12919124 18.24122113 17.71289062 19.91772461 C18.55121599 22.32648432 19.38360069 24.73722603 20.21484375 27.1484375 C20.4773291 27.89853592 20.73981445 28.64863434 21.01025391 29.42146301 C22.04404648 32.43571632 22.83984375 34.88721589 22.83984375 38.09765625 C19.20984375 38.09765625 15.57984375 38.09765625 11.83984375 38.09765625 C10.84984375 34.63265625 10.84984375 34.63265625 9.83984375 31.09765625 C5.54984375 31.09765625 1.25984375 31.09765625 -3.16015625 31.09765625 C-3.49015625 33.40765625 -3.82015625 35.71765625 -4.16015625 38.09765625 C-7.79015625 38.09765625 -11.42015625 38.09765625 -15.16015625 38.09765625 C-14.57217984 33.10864445 -13.51635547 28.67291286 -11.91015625 23.88671875 C-11.58289551 22.90631119 -11.58289551 22.90631119 -11.24902344 21.90609741 C-10.79126428 20.53881615 -10.33061709 19.17249864 -9.8671875 17.80712891 C-9.15574367 15.70964706 -8.45415724 13.60905446 -7.75390625 11.5078125 C-3.93047976 0.12146106 -3.93047976 0.12146106 0 0 Z " fill="#090909" transform="translate(211.16015625,8.90234375)"/>
<path d="M0 0 C7.59 0 15.18 0 23 0 C23 2.64 23 5.28 23 8 C18.71 8 14.42 8 10 8 C10 9.98 10 11.96 10 14 C13.96 14 17.92 14 22 14 C22 16.64 22 19.28 22 22 C18.04 22 14.08 22 10 22 C10 24.64 10 27.28 10 30 C14.29 30 18.58 30 23 30 C23 32.64 23 35.28 23 38 C15.41 38 7.82 38 0 38 C0 25.46 0 12.92 0 0 Z " fill="#050505" transform="translate(92,9)"/>
<path d="M0 0 C7.59 0 15.18 0 23 0 C23 2.64 23 5.28 23 8 C19.04 8 15.08 8 11 8 C11 10.31 11 12.62 11 15 C14.63 15 18.26 15 22 15 C22 17.97 22 20.94 22 24 C18.37 24 14.74 24 11 24 C11 28.62 11 33.24 11 38 C7.37 38 3.74 38 0 38 C0 25.46 0 12.92 0 0 Z " fill="#0E0E0E" transform="translate(63,9)"/>
<path d="M0 0 C1.55654297 -0.00386719 1.55654297 -0.00386719 3.14453125 -0.0078125 C6.1875 0.125 6.1875 0.125 11.1875 1.125 C9.5375 5.415 7.8875 9.705 6.1875 14.125 C5.5275 13.795 4.8675 13.465 4.1875 13.125 C4.5175 10.485 4.8475 7.845 5.1875 5.125 C3.12824319 8.21388522 2.9484626 8.83435927 3.0625 12.3125 C3.10375 13.570625 3.145 14.82875 3.1875 16.125 C-7.8364368 17.13208069 -18.75255573 17.23111887 -29.8125 17.125 C-30.1425 14.815 -30.4725 12.505 -30.8125 10.125 C-32.7925 10.125 -34.7725 10.125 -36.8125 10.125 C-34.21387499 7.52637499 -31.35062021 6.7448311 -27.9375 5.625 C-26.93843628 5.29290527 -26.93843628 5.29290527 -25.91918945 4.95410156 C-20.70869369 3.28207217 -15.53385528 2.21695078 -10.10546875 1.484375 C-0.62468167 -0.00154052 -0.62468167 -0.00154052 0 0 Z " fill="#F4F4F4" transform="translate(175.8125,121.875)"/>
<path d="M0 0 C6.91313928 -0.27408922 13.6925431 0.15307233 20.5625 0.875 C21.75915283 0.99270752 21.75915283 0.99270752 22.97998047 1.11279297 C28.75935857 1.75935857 28.75935857 1.75935857 31 4 C32.14569047 7.63925209 33.07467382 11.29869526 34 15 C23.11 15 12.22 15 1 15 C1.33 14.34 1.66 13.68 2 13 C2.33340471 10.04195427 2.33340471 10.04195427 2 7 C1.01979625 5.9805881 0.02196992 4.97753644 -1 4 C-0.58984375 1.9140625 -0.58984375 1.9140625 0 0 Z " fill="#F2F2F2" transform="translate(198,122)"/>
<path d="M0 0 C3.63 0 7.26 0 11 0 C11 12.54 11 25.08 11 38 C7.37 38 3.74 38 0 38 C0 25.46 0 12.92 0 0 Z " fill="#0F0F0F" transform="translate(274,9)"/>
<path d="M0 0 C-8.07085475 8.07085475 -35.07904599 5.20520716 -45.91870117 5.875 C-51.8719834 6.24361537 -57.82468389 6.62148604 -63.77734375 7 C-65.7024025 7.12157471 -65.7024025 7.12157471 -67.66635132 7.24560547 C-77.11663221 7.85229276 -86.55475788 8.5683017 -95.98875427 9.390625 C-101.35099158 9.84577268 -106.61825371 10.08894792 -112 10 C-112 9.34 -112 8.68 -112 8 C-112.99 8.495 -112.99 8.495 -114 9 C-115.44848582 9.08342159 -116.90070869 9.10732861 -118.3515625 9.09765625 C-119.20234375 9.09443359 -120.053125 9.09121094 -120.9296875 9.08789062 C-121.81914063 9.07951172 -122.70859375 9.07113281 -123.625 9.0625 C-124.97078125 9.05573242 -124.97078125 9.05573242 -126.34375 9.04882812 C-128.56256648 9.03702591 -130.78125018 9.02056155 -133 9 C-129.92282317 7.2368899 -127.4973119 6.68422516 -123.97094727 6.45336914 C-122.45328011 6.34784477 -122.45328011 6.34784477 -120.904953 6.2401886 C-119.80323257 6.17252792 -118.70151215 6.10486725 -117.56640625 6.03515625 C-116.4055098 5.95722336 -115.24461334 5.87929047 -114.04853821 5.79899597 C-110.22038201 5.5446379 -106.39153955 5.30316657 -102.5625 5.0625 C-100.57650263 4.93354589 -98.59050543 4.80458797 -96.60455322 4.67494011 C-88.40697668 4.14025564 -80.20811776 3.62740712 -72.00859833 3.12348175 C-70.03909729 3.00240357 -68.06962765 2.8808151 -66.10015869 2.75921631 C-57.69260802 2.24144056 -49.2841829 1.74048962 -40.875 1.25 C-39.78414093 1.18515411 -38.69328186 1.12030823 -37.56936646 1.05349731 C-25.03119119 0.31366451 -12.56094233 -0.19170507 0 0 Z " fill="#1C1C1C" transform="translate(232,180)"/>
<path d="M0 0 C4.48879523 2.35269634 7.99932904 5.26259932 11.34765625 9.04296875 C11.01765625 10.03296875 10.68765625 11.02296875 10.34765625 12.04296875 C7.87265625 9.56796875 7.87265625 9.56796875 5.34765625 7.04296875 C5.34765625 7.37296875 5.34765625 7.70296875 5.34765625 8.04296875 C6.00765625 8.70296875 6.66765625 9.36296875 7.34765625 10.04296875 C7.34765625 11.36296875 7.34765625 12.68296875 7.34765625 14.04296875 C8.33765625 14.37296875 9.32765625 14.70296875 10.34765625 15.04296875 C12.19672893 19.91976277 12.40985152 26.42226862 10.453125 31.25 C9.34765625 33.16796875 9.34765625 33.16796875 7.34765625 36.04296875 C2.49327626 35.59139852 -0.14408388 34.45099262 -3.65234375 31.04296875 C-3.98234375 30.05296875 -4.31234375 29.06296875 -4.65234375 28.04296875 C-0.73640929 28.82615564 2.7117226 30.43476733 6.34765625 32.04296875 C6.67765625 29.40296875 7.00765625 26.76296875 7.34765625 24.04296875 C5.69765625 23.71296875 4.04765625 23.38296875 2.34765625 23.04296875 C2.34765625 24.03296875 2.34765625 25.02296875 2.34765625 26.04296875 C1.35765625 26.04296875 0.36765625 26.04296875 -0.65234375 26.04296875 C-0.65234375 25.05296875 -0.65234375 24.06296875 -0.65234375 23.04296875 C-1.64234375 22.71296875 -2.63234375 22.38296875 -3.65234375 22.04296875 C-3.65234375 19.70963542 -3.65234375 17.37630208 -3.65234375 15.04296875 C-3.05421875 15.26984375 -2.45609375 15.49671875 -1.83984375 15.73046875 C0.39820683 16.31168035 0.39820683 16.31168035 2.03515625 14.79296875 C3.54859264 12.96720585 3.54859264 12.96720585 4.34765625 10.04296875 C1.38078624 8.39470764 -1.308609 7.60025788 -4.65234375 7.04296875 C-4.32234375 5.39296875 -3.99234375 3.74296875 -3.65234375 2.04296875 C-7.61234375 2.04296875 -11.57234375 2.04296875 -15.65234375 2.04296875 C-14.66234375 3.00203125 -14.66234375 3.00203125 -13.65234375 3.98046875 C-10.97012822 8.08761128 -11.27852401 11.27676704 -11.65234375 16.04296875 C-13.30234375 16.04296875 -14.95234375 16.04296875 -16.65234375 16.04296875 C-16.28109375 15.11484375 -15.90984375 14.18671875 -15.52734375 13.23046875 C-15.23859375 12.17859375 -14.94984375 11.12671875 -14.65234375 10.04296875 C-15.31234375 9.05296875 -15.97234375 8.06296875 -16.65234375 7.04296875 C-17.25046875 7.35234375 -17.84859375 7.66171875 -18.46484375 7.98046875 C-20.65234375 9.04296875 -20.65234375 9.04296875 -23.65234375 10.04296875 C-22.65234375 8.04296875 -21.65234375 6.04296875 -20.65234375 4.04296875 C-22.30234375 4.70296875 -23.95234375 5.36296875 -25.65234375 6.04296875 C-25.65234375 5.38296875 -25.65234375 4.72296875 -25.65234375 4.04296875 C-17.62154101 -1.03293366 -9.25617101 -3.33985552 0 0 Z " fill="#F1F1F1" transform="translate(72.65234375,163.95703125)"/>
<path d="M0 0 C4.20474592 2.36305366 6.81563362 4.93782485 9.5625 8.875 C9.2325 9.535 8.9025 10.195 8.5625 10.875 C7.2425 9.555 5.9225 8.235 4.5625 6.875 C4.81 7.7825 5.0575 8.69 5.3125 9.625 C5.5625 12.875 5.5625 12.875 3.625 15.25 C2.944375 15.78625 2.26375 16.3225 1.5625 16.875 C0.5725 16.545 -0.4175 16.215 -1.4375 15.875 C-0.9425 15.276875 -0.4475 14.67875 0.0625 14.0625 C1.84526418 11.90470006 1.84526418 11.90470006 1.5625 8.875 C0.00495747 6.91442845 0.00495747 6.91442845 -2.4375 5.875 C-5.65924544 6.58723847 -5.65924544 6.58723847 -8.4375 7.875 C-8.7675 7.215 -9.0975 6.555 -9.4375 5.875 C-8.1175 4.555 -6.7975 3.235 -5.4375 1.875 C-6.49728933 0.58887324 -6.49728933 0.58887324 -8.94140625 0.77734375 C-9.95074219 0.78894531 -10.96007812 0.80054688 -12 0.8125 C-13.01191406 0.82152344 -14.02382813 0.83054688 -15.06640625 0.83984375 C-15.84886719 0.85144531 -16.63132812 0.86304688 -17.4375 0.875 C-16.6125 1.65875 -15.7875 2.4425 -14.9375 3.25 C-11.79617312 6.93110418 -12.02072434 10.23003149 -12.26171875 14.8984375 C-12.31972656 15.55070312 -12.37773437 16.20296875 -12.4375 16.875 C-16.49561918 19.15713705 -18.87671752 19.07520592 -23.4375 17.875 C-26.4375 15.6875 -26.4375 15.6875 -28.4375 12.875 C-28.125 9.6875 -28.125 9.6875 -27.4375 6.875 C-28.0975 6.215 -28.7575 5.555 -29.4375 4.875 C-28.00292672 3.8915504 -26.56472594 2.91339079 -25.125 1.9375 C-24.32449219 1.39222656 -23.52398437 0.84695312 -22.69921875 0.28515625 C-15.93985361 -3.92923203 -7.01603086 -3.28678923 0 0 Z " fill="#EAEAEA" transform="translate(283.4375,165.125)"/>
<path d="M0 0 C2.63230081 0.00538553 5.26443267 0.00000523 7.89672852 -0.00634766 C32.71253681 -0.01976713 32.71253681 -0.01976713 37.43774414 3.13037109 C36.02550316 3.14583229 36.02550316 3.14583229 34.58473206 3.16160583 C25.54454215 3.26099909 16.50439644 3.36382993 7.46428013 3.46971035 C2.82092976 3.52399262 -1.82242679 3.57721841 -6.46582031 3.62768555 C-26.29522996 3.84395394 -46.11465594 4.1170821 -65.93431091 4.7978363 C-76.14750978 5.14705731 -86.34425756 5.24211105 -96.56225586 5.13037109 C-91.79313466 0.3612499 -81.69338945 1.92571748 -75.37475586 1.84912109 C-74.19945313 1.83071167 -73.02415039 1.81230225 -71.81323242 1.79333496 C-68.06295591 1.73481454 -64.31263355 1.68197074 -60.56225586 1.63037109 C-40.85437207 1.40352231 -40.85437207 1.40352231 -21.1809082 0.34423828 C-14.12749461 -0.07262788 -7.06363015 -0.01717199 0 0 Z " fill="#1D1D1D" transform="translate(197.562255859375,188.86962890625)"/>
<path d="M0 0 C0.95422852 -0.00467285 1.90845703 -0.0093457 2.89160156 -0.01416016 C8.85578356 -0.00010898 14.70261655 0.42515442 20.625 1.125 C20.625 1.455 20.625 1.785 20.625 2.125 C19.93486313 2.14339432 19.24472626 2.16178864 18.53367615 2.18074036 C-12.55429358 3.01754974 -43.55788772 3.92818525 -74.54946899 6.64248657 C-83.47684209 7.413568 -92.42146594 7.81026971 -101.375 8.125 C-85.26948162 -7.98051838 -22.31349825 0.07211195 0 0 Z " fill="#1E1E1E" transform="translate(208.375,173.875)"/>
<path d="M0 0 C3.61267225 0.00539644 7.22522193 -0.00000279 10.83789062 -0.00634766 C39.31182737 -0.01755998 39.31182737 -0.01755998 46.72070312 1.13037109 C47.21570313 2.12037109 47.21570313 2.12037109 47.72070312 3.13037109 C46.91098557 3.12815048 46.10126801 3.12592987 45.26701355 3.12364197 C37.54695697 3.10340631 29.82691368 3.08828033 22.10683727 3.07855892 C18.14014215 3.07339269 14.17346938 3.06641248 10.20678711 3.05493164 C-12.64163995 2.93313468 -12.64163995 2.93313468 -35.46289062 3.90771484 C-42.06574319 4.29293756 -48.66749485 4.21244864 -55.27929688 4.13037109 C-49.41183656 0.87067092 -43.26801603 0.85802529 -36.70898438 0.57568359 C-35.7503952 0.533638 -34.79180603 0.49159241 -33.8041687 0.44827271 C-22.53841932 0.00011687 -11.27314504 -0.02000968 0 0 Z " fill="#3A3A3A" transform="translate(273.279296875,146.86962890625)"/>
<path d="M0 0 C7 1 7 1 9.4375 2.375 C12.01143373 6.69920867 11.70162697 11.11031102 11 16 C9.4375 19.1875 9.4375 19.1875 7 21 C4.69 21 2.38 21 0 21 C0 14.07 0 7.14 0 0 Z " fill="#F7F7F7" transform="translate(171,17)"/>
<path d="M0 0 C7 1 7 1 9.4375 2.375 C12.01143373 6.69920867 11.70162697 11.11031102 11 16 C9.4375 19.1875 9.4375 19.1875 7 21 C4.69 21 2.38 21 0 21 C0 14.07 0 7.14 0 0 Z " fill="#F7F7F7" transform="translate(132,17)"/>
<path d="M0 0 C0.66 0 1.32 0 2 0 C1.34 1.65 0.68 3.3 0 5 C1.32 4.01 2.64 3.02 4 2 C6.47128202 2.9566253 7.72986449 3.45972898 8.9375 5.875 C9.0225942 8.76820282 7.88243538 9.89167237 6 12 C7.32 12.33 8.64 12.66 10 13 C10.33 14.65 10.66 16.3 11 18 C5.25 18.125 5.25 18.125 3 17 C1.29297265 16.93003986 -0.41668003 16.91559846 -2.125 16.9375 C-3.03507812 16.94652344 -3.94515625 16.95554688 -4.8828125 16.96484375 C-5.93082031 16.98224609 -5.93082031 16.98224609 -7 17 C-6.01 15.68 -5.02 14.36 -4 13 C-4.33 12.67 -4.66 12.34 -5 12 C-4.69747651 6.75625946 -3.74096728 3.74096728 0 0 Z " fill="#B3B3B3" transform="translate(50,168)"/>
<path d="M0 0 C4.48879523 2.35269634 7.99932904 5.26259932 11.34765625 9.04296875 C11.01765625 10.03296875 10.68765625 11.02296875 10.34765625 12.04296875 C9.64640625 11.27984375 8.94515625 10.51671875 8.22265625 9.73046875 C5.36169467 7.05609162 2.88240433 5.65665809 -0.65234375 4.04296875 C-1.64234375 3.38296875 -2.63234375 2.72296875 -3.65234375 2.04296875 C-6.62683983 1.8007756 -6.62683983 1.8007756 -9.83984375 1.91796875 C-11.46986328 1.94503906 -11.46986328 1.94503906 -13.1328125 1.97265625 C-13.96425781 1.99585938 -14.79570313 2.0190625 -15.65234375 2.04296875 C-14.66234375 3.00203125 -14.66234375 3.00203125 -13.65234375 3.98046875 C-10.97012822 8.08761128 -11.27852401 11.27676704 -11.65234375 16.04296875 C-13.30234375 16.04296875 -14.95234375 16.04296875 -16.65234375 16.04296875 C-16.28109375 15.11484375 -15.90984375 14.18671875 -15.52734375 13.23046875 C-15.23859375 12.17859375 -14.94984375 11.12671875 -14.65234375 10.04296875 C-15.31234375 9.05296875 -15.97234375 8.06296875 -16.65234375 7.04296875 C-17.25046875 7.35234375 -17.84859375 7.66171875 -18.46484375 7.98046875 C-20.65234375 9.04296875 -20.65234375 9.04296875 -23.65234375 10.04296875 C-22.65234375 8.04296875 -21.65234375 6.04296875 -20.65234375 4.04296875 C-22.30234375 4.70296875 -23.95234375 5.36296875 -25.65234375 6.04296875 C-25.65234375 5.38296875 -25.65234375 4.72296875 -25.65234375 4.04296875 C-17.62154101 -1.03293366 -9.25617101 -3.33985552 0 0 Z " fill="#EAEAEA" transform="translate(72.65234375,163.95703125)"/>
<path d="M0 0 C0.84304687 0.16435547 0.84304687 0.16435547 1.703125 0.33203125 C9.16739673 1.7401684 16.6627281 2.86951014 24.18066406 3.9465332 C25.01823242 4.06859131 25.85580078 4.19064941 26.71875 4.31640625 C27.47091797 4.42412354 28.22308594 4.53184082 28.99804688 4.64282227 C31 5 31 5 34 6 C34 6.66 34 7.32 34 8 C29.63913661 7.98059471 25.28020785 7.92893076 20.92016602 7.84741211 C19.43720523 7.82422311 17.95407955 7.80983419 16.47094727 7.80444336 C14.33765822 7.79515887 12.20696526 7.75419179 10.07421875 7.70703125 C8.79119873 7.6913208 7.50817871 7.67561035 6.1862793 7.65942383 C3 7 3 7 1.05786133 4.58081055 C0 2 0 2 0 0 Z " fill="#EBEBEB" transform="translate(242,126)"/>
<path d="M0 0 C0.99 0.99 1.98 1.98 3 3 C2.34 3.66 1.68 4.32 1 5 C3.31 5.33 5.62 5.66 8 6 C7.67 6.99 7.34 7.98 7 9 C5.02 9.33 3.04 9.66 1 10 C1.66 12.64 2.32 15.28 3 18 C4.093125 17.525625 5.18625 17.05125 6.3125 16.5625 C8.53476255 15.59812191 10.69500485 14.76833172 13 14 C12.05208357 17.18844618 11.30234667 18.75485405 8.6875 20.875 C5.5450135 22.19045947 4.18118427 22.11771339 1 21 C-2.21044558 17.78955442 -2.15357794 14.46558335 -2.1875 10.0625 C-2.15957004 6.28078396 -1.81206175 3.39761578 0 0 Z " fill="#EDEDED" transform="translate(253,178)"/>
<path d="M0 0 C0.66 1.32 1.32 2.64 2 4 C-5.77543964 7.1374581 -12.63897199 8.1466847 -21 8 C-21.33 7.34 -21.66 6.68 -22 6 C-20.27398621 5.18082358 -18.5440353 4.36993984 -16.8125 3.5625 C-15.84957031 3.11003906 -14.88664062 2.65757812 -13.89453125 2.19140625 C-9.17467683 0.24868614 -5.07920208 -0.11812098 0 0 Z " fill="#EBEBEB" transform="translate(140,134)"/>
<path d="M0 0 C5.96351455 1.27789598 8.48417174 4.33716394 12 9 C11.67 9.66 11.34 10.32 11 11 C9.68 9.68 8.36 8.36 7 7 C7.2475 7.9075 7.495 8.815 7.75 9.75 C8 13 8 13 6.0625 15.375 C5.381875 15.91125 4.70125 16.4475 4 17 C3.01 16.67 2.02 16.34 1 16 C1.495 15.401875 1.99 14.80375 2.5 14.1875 C4.28276418 12.02970006 4.28276418 12.02970006 4 9 C2.44245747 7.03942845 2.44245747 7.03942845 0 6 C-3.22174544 6.71223847 -3.22174544 6.71223847 -6 8 C-6.33 7.34 -6.66 6.68 -7 6 C-5.1875 4 -5.1875 4 -3 2 C-2.01 2 -1.02 2 0 2 C0 1.34 0 0.68 0 0 Z " fill="#EFEFEF" transform="translate(281,165)"/>
<path d="M0 0 C7.25440806 -0.4836272 7.25440806 -0.4836272 10.3125 1.5 C12.20354974 4.30155516 13.26095038 6.99002177 14.2890625 10.1953125 C14.94418873 12.21000614 14.94418873 12.21000614 17 14 C11.27720531 13.05243487 7.34315989 12.0876799 3 8 C2.01 7.34 1.02 6.68 0 6 C2.3125 5.375 2.3125 5.375 5 5 C5.99 5.66 6.98 6.32 8 7 C8.33 6.34 8.66 5.68 9 5 C7.329375 4.5978125 7.329375 4.5978125 5.625 4.1875 C2 3 2 3 0 0 Z " fill="#1A1A1A" transform="translate(11,179)"/>
<path d="M0 0 C4.90405117 4.1684435 4.90405117 4.1684435 5.375 8.25 C5 11 5 11 4 12 C1.75 12.375 1.75 12.375 -1 12 C-3.875 9.75 -3.875 9.75 -6 7 C-6.125 4.875 -6.125 4.875 -5 3 C-2.4375 1.25 -2.4375 1.25 0 0 Z " fill="#252525" transform="translate(264,170)"/>
<path d="M0 0 C1.06347656 -0.01417969 2.12695312 -0.02835938 3.22265625 -0.04296875 C5.9375 0.1875 5.9375 0.1875 7.9375 2.1875 C6.968125 2.6 5.99875 3.0125 5 3.4375 C3.24179456 4.44447195 3.24179456 4.44447195 1.9375 6.1875 C1.09249041 10.18402333 0.9503216 14.11023187 0.9375 18.1875 C0.2775 18.1875 -0.3825 18.1875 -1.0625 18.1875 C-1.17207031 17.35605469 -1.28164063 16.52460938 -1.39453125 15.66796875 C-1.55308594 14.58128906 -1.71164063 13.49460938 -1.875 12.375 C-2.10123047 10.75658203 -2.10123047 10.75658203 -2.33203125 9.10546875 C-3.4343036 4.70227387 -5.36508081 3.65244613 -9.0625 1.1875 C-5.83852808 0.11284269 -3.38779214 0.02058197 0 0 Z " fill="#1D1D1D" transform="translate(63.0625,164.8125)"/>
<path d="M0 0 C3.35595828 0.59927826 5.37801226 1.84622436 8 4 C7.60196439 6.88575819 7.20990931 7.82189513 4.9375 9.75 C3.9784375 10.36875 3.9784375 10.36875 3 11 C3 10.34 3 9.68 3 9 C2.01 9 1.02 9 0 9 C0.33 9.99 0.66 10.98 1 12 C-0.32 11.67 -1.64 11.34 -3 11 C-3.32613618 6.32538149 -2.70582788 3.83325617 0 0 Z " fill="#131313" transform="translate(69,170)"/>
<path d="M0 0 C1.22126839 0.00212242 1.22126839 0.00212242 2.46720886 0.00428772 C5.05500031 0.00986308 7.64270367 0.02241101 10.23046875 0.03515625 C11.99023312 0.04017444 13.74999886 0.04473679 15.50976562 0.04882812 C19.81253369 0.05982444 24.11523631 0.07707204 28.41796875 0.09765625 C28.41796875 0.42765625 28.41796875 0.75765625 28.41796875 1.09765625 C-4.09631976 3.48542431 -4.09631976 3.48542431 -17.58203125 3.09765625 C-11.90982404 -0.05356998 -6.36699504 -0.04194116 0 0 Z " fill="#050505" transform="translate(235.58203125,147.90234375)"/>
<path d="M0 0 C0.97710937 -0.01417969 1.95421875 -0.02835938 2.9609375 -0.04296875 C5.625 0.1875 5.625 0.1875 8.625 2.1875 C8.00625 2.435 7.3875 2.6825 6.75 2.9375 C4.16679627 4.45703161 3.7334082 5.43559 2.625 8.1875 C2.17435368 10.77282701 2.17435368 10.77282701 2 13.4375 C1.92523438 14.32953125 1.85046875 15.2215625 1.7734375 16.140625 C1.72445313 16.81609375 1.67546875 17.4915625 1.625 18.1875 C0.965 18.1875 0.305 18.1875 -0.375 18.1875 C-0.38917969 17.46304688 -0.40335937 16.73859375 -0.41796875 15.9921875 C-0.74826021 9.29709038 -1.47249281 5.83859657 -6.375 1.1875 C-4.64526886 -0.54223114 -2.34983037 0.01541883 0 0 Z " fill="#1A1A1A" transform="translate(271.375,164.8125)"/>
<path d="M0 0 C1.22589844 0.01353516 1.22589844 0.01353516 2.4765625 0.02734375 C3.41628906 0.04474609 3.41628906 0.04474609 4.375 0.0625 C4.705 1.0525 5.035 2.0425 5.375 3.0625 C3.8125 5.6875 3.8125 5.6875 1.375 8.0625 C-1.875 8.875 -1.875 8.875 -4.625 9.0625 C-6.38962683 5.97440305 -6.625 4.82937864 -6.625 1.0625 C-4.21954362 -0.14022819 -2.67503047 -0.03821472 0 0 Z " fill="#292929" transform="translate(260.625,186.9375)"/>
<path d="M0 0 C2.49361571 1.20381448 4.68143083 2.45428722 7 4 C6.875 5.75 6.875 5.75 6 8 C2.33306034 10.93355173 0.76869466 12 -4 12 C-4 11.34 -4 10.68 -4 10 C-3.01 9.67 -2.02 9.34 -1 9 C-1.66 8.34 -2.32 7.68 -3 7 C-2.67028521 3.70285207 -2.3773161 2.3773161 0 0 Z " fill="#0C0C0C" transform="translate(279,170)"/>
<path d="M0 0 C0.66 0 1.32 0 2 0 C2 0.99 2 1.98 2 3 C2.99 3 3.98 3 5 3 C5 2.01 5 1.02 5 0 C6.65 0 8.3 0 10 0 C10.80967438 2.91482778 11.21845993 4.46113217 10.0625 7.3125 C9.711875 7.869375 9.36125 8.42625 9 9 C5.49588735 8.6814443 3.4159895 8.30932553 0.5625 6.1875 C-1 4 -1 4 -0.75 1.75 C-0.5025 1.1725 -0.255 0.595 0 0 Z " fill="#151515" transform="translate(70,187)"/>
<path d="M0 0 C2.47128202 0.9566253 3.72986449 1.45972898 4.9375 3.875 C5.0225942 6.76820282 3.88243538 7.89167237 2 10 C3.32 10.33 4.64 10.66 6 11 C4.375 11.75 4.375 11.75 2 12 C-3.59670782 9.03703704 -3.59670782 9.03703704 -4.875 5.75 C-4.91625 5.1725 -4.9575 4.595 -5 4 C-3.35 2.68 -1.7 1.36 0 0 Z " fill="#0C0C0C" transform="translate(54,170)"/>
<path d="M0 0 C1.52519276 0.08937803 3.04681929 0.24537146 4.5625 0.4375 C5.80193359 0.59025391 5.80193359 0.59025391 7.06640625 0.74609375 C7.70449219 0.82988281 8.34257812 0.91367188 9 1 C7.68 3.64 6.36 6.28 5 9 C0.25 8.25 0.25 8.25 -2 6 C-1.44444444 1.44444444 -1.44444444 1.44444444 0 0 Z " fill="#0E0E0E" transform="translate(282,187)"/>
<path d="M0 0 C-2 2 -2 2 -4.625 2.125 C-5.40875 2.08375 -6.1925 2.0425 -7 2 C-7 2.66 -7 3.32 -7 4 C-13.11980533 5.40454548 -18.71739294 6.23268915 -25 6 C-25 5.34 -25 4.68 -25 4 C-22.14777615 3.32391731 -19.29368707 2.65894885 -16.4375 2 C-15.63763672 1.80921875 -14.83777344 1.6184375 -14.01367188 1.421875 C-9.21654468 0.32538878 -4.91983966 -0.21132197 0 0 Z " fill="#2E2E2E" transform="translate(45,155)"/>
<path d="M0 0 C0.99 0 1.98 0 3 0 C2.63373083 6.34866553 2.63373083 6.34866553 -0.25 9.3125 C-2.79310775 10.87304339 -5.18227736 12.03392367 -8 13 C-6.01544191 7.77747872 -3.920611 4.01862628 0 0 Z " fill="#E7E7E7" transform="translate(192,122)"/>
<path d="M0 0 C2 2 2 2 2.25 4.5 C2 7 2 7 0 9 C-1.32 9 -2.64 9 -4 9 C-5.32 6.36 -6.64 3.72 -8 1 C-5.23749964 -0.38125018 -3.05268901 -0.19079306 0 0 Z " fill="#0A0A0A" transform="translate(52,187)"/>
<path d="M0 0 C4.92307692 4.18461538 4.92307692 4.18461538 5.3125 8.3125 C5.1578125 9.6428125 5.1578125 9.6428125 5 11 C2.36 11 -0.28 11 -3 11 C-3 8.69 -3 6.38 -3 4 C-1.68 4 -0.36 4 1 4 C0.67 2.68 0.34 1.36 0 0 Z " fill="#090909" transform="translate(271,193)"/>
<path d="M0 0 C1 3 1 3 0.22265625 4.82421875 C-0.8515625 6.54947917 -1.92578125 8.27473958 -3 10 C-7.85437999 9.54842977 -10.49174013 8.40802387 -14 5 C-14.33 4.01 -14.66 3.02 -15 2 C-11.08406554 2.78318689 -7.63593365 4.39179858 -4 6 C-3.896875 5.38125 -3.79375 4.7625 -3.6875 4.125 C-3 2 -3 2 0 0 Z " fill="#E8E8E8" transform="translate(83,190)"/>
<path d="M0 0 C0.66 0.33 1.32 0.66 2 1 C3.47180796 5.82425944 4.25376143 9.92477148 4 15 C1.69 15 -0.62 15 -3 15 C-2.86722656 14.41992188 -2.73445312 13.83984375 -2.59765625 13.2421875 C-1.60295999 8.84229018 -0.68631668 4.46105842 0 0 Z " fill="#EBEBEB" transform="translate(214,16)"/>
<path d="M0 0 C0.99 0.103125 1.98 0.20625 3 0.3125 C5.13586678 3.51630017 5.23132175 4.33189967 5.125 8 C5.10695313 8.80824219 5.08890625 9.61648437 5.0703125 10.44921875 C5.03550781 11.37154297 5.03550781 11.37154297 5 12.3125 C3.35 12.3125 1.7 12.3125 0 12.3125 C0.37125 11.384375 0.7425 10.45625 1.125 9.5 C1.41375 8.448125 1.7025 7.39625 2 6.3125 C1.34 5.3225 0.68 4.3325 0 3.3125 C-0.598125 3.621875 -1.19625 3.93125 -1.8125 4.25 C-4 5.3125 -4 5.3125 -7 6.3125 C-4.26131387 0.44388686 -4.26131387 0.44388686 0 0 Z " fill="#F1F1F1" transform="translate(56,167.6875)"/>
<path d="M0 0 C0 3 0 3 -1 5 C0.65 5 2.3 5 4 5 C4 6.98 4 8.96 4 11 C1.36 11 -1.28 11 -4 11 C-4.49230769 4.6 -4.49230769 4.6 -2 1.5625 C-1.34 1.046875 -0.68 0.53125 0 0 Z " fill="#060606" transform="translate(63,193)"/>
<path d="M0 0 C2.6875 -0.0625 2.6875 -0.0625 6 1 C8.14722803 3.77621402 9.78500152 6.70560113 11 10 C10.67 10.66 10.34 11.32 10 12 C9.67 11.01 9.34 10.02 9 9 C6.66989091 8.32215008 4.33640176 7.65583207 2 7 C0 4 0 4 0 0 Z " fill="#E6E6E6" transform="translate(231,125)"/>
<path d="M0 0 C0.33 0 0.66 0 1 0 C1.04898437 0.62648437 1.09796875 1.25296875 1.1484375 1.8984375 C1.22320312 2.71570313 1.29796875 3.53296875 1.375 4.375 C1.44460938 5.18710938 1.51421875 5.99921875 1.5859375 6.8359375 C1.82892588 9.20334191 1.82892588 9.20334191 4 11 C6.31648799 12.03842565 8.64903024 13.0421975 11 14 C10.67 14.99 10.34 15.98 10 17 C9.01 16.34 8.02 15.68 7 15 C4.35367713 15.3121764 4.35367713 15.3121764 2 16 C1.67 18.31 1.34 20.62 1 23 C0.67 23 0.34 23 0 23 C0 15.41 0 7.82 0 0 Z " fill="#D2D2D2" transform="translate(9,170)"/>
<path d="M0 0 C2.375 -0.125 2.375 -0.125 5 0 C5.66 0.66 6.32 1.32 7 2 C6.44444444 6.55555556 6.44444444 6.55555556 5 8 C3.33382885 8.04063832 1.66611905 8.042721 0 8 C0 5.36 0 2.72 0 0 Z " fill="#FAFAFA" transform="translate(249,17)"/>
<path d="M0 0 C0.33 0.99 0.66 1.98 1 3 C-5.6 3 -12.2 3 -19 3 C-14.5156343 -1.4843657 -5.95860074 -0.10790223 0 0 Z " fill="#262626" transform="translate(120,191)"/>
<path d="M0 0 C0.2475 0.5775 0.495 1.155 0.75 1.75 C2.97636479 5.75745663 5.80471463 8.20202055 10 10 C6.98990772 11.27350058 5.99218495 10.99687398 2.875 9.75 C0 8 0 8 -2 5 C-2 3.68 -2 2.36 -2 1 C-1.34 0.67 -0.68 0.34 0 0 Z " fill="#D7D7D7" transform="translate(257,173)"/>
<path d="M0 0 C-0.98828125 1.48828125 -0.98828125 1.48828125 -3 3 C-5.81127043 3.21714241 -8.3883345 3.28284276 -11.1875 3.1875 C-11.93708984 3.17396484 -12.68667969 3.16042969 -13.45898438 3.14648438 C-15.30629767 3.11118539 -17.15324066 3.05737917 -19 3 C-12.70922672 -0.23751093 -6.96007604 -0.1216324 0 0 Z " fill="#202020" transform="translate(237,148)"/>
<path d="M0 0 C1.66519519 0.34060811 3.33157466 0.67558396 5 1 C5 1.33 5 1.66 5 2 C-5.395 2.495 -5.395 2.495 -16 3 C-13.63496183 0.63496183 -12.35963958 0.45078941 -9.125 -0.1875 C-8.26132813 -0.36667969 -7.39765625 -0.54585937 -6.5078125 -0.73046875 C-3.96988626 -1.00323652 -2.4078174 -0.76196753 0 0 Z " fill="#232323" transform="translate(123,179)"/>
<path d="M0 0 C0 0.33 0 0.66 0 1 C-4.455 1.495 -4.455 1.495 -9 2 C-9 2.66 -9 3.32 -9 4 C-10.6396875 4.2165625 -10.6396875 4.2165625 -12.3125 4.4375 C-15.93122987 4.88288104 -15.93122987 4.88288104 -19 6 C-19 5.34 -19 4.68 -19 4 C-12.15622802 -0.12912339 -7.90109009 -1.65668018 0 0 Z " fill="#D7D7D7" transform="translate(66,164)"/>
<path d="M0 0 C0.97710937 -0.01417969 1.95421875 -0.02835938 2.9609375 -0.04296875 C5.625 0.1875 5.625 0.1875 8.625 2.1875 C8.00625 2.47625 7.3875 2.765 6.75 3.0625 C4.49174235 4.12470042 4.49174235 4.12470042 2.625 6.1875 C2.625 3.1875 2.625 3.1875 3.625 1.1875 C1.645 1.1875 -0.335 1.1875 -2.375 1.1875 C-1.385 2.8375 -0.395 4.4875 0.625 6.1875 C-0.365 6.6825 -0.365 6.6825 -1.375 7.1875 C-3.025 5.2075 -4.675 3.2275 -6.375 1.1875 C-4.64526886 -0.54223114 -2.34983037 0.01541883 0 0 Z " fill="#161616" transform="translate(271.375,164.8125)"/>
<path d="M0 0 C0.66 0.33 1.32 0.66 2 1 C1.401875 1.66 0.80375 2.32 0.1875 3 C-2.42425831 6.58183997 -3.58094144 9.81377726 -5 14 C-5.66 13.67 -6.32 13.34 -7 13 C-7 12.34 -7 11.68 -7 11 C-7.99 10.67 -8.98 10.34 -10 10 C-9.0925 9.278125 -8.185 8.55625 -7.25 7.8125 C-4.4298006 5.47347206 -2.19093342 2.94933345 0 0 Z " fill="#1D1D1D" transform="translate(60,190)"/>
<path d="M0 0 C0.5625 1.9375 0.5625 1.9375 1 4 C0 5 0 5 -2.06640625 5.09765625 C-2.89011719 5.08605469 -3.71382812 5.07445312 -4.5625 5.0625 C-5.38878906 5.05347656 -6.21507812 5.04445312 -7.06640625 5.03515625 C-7.70449219 5.02355469 -8.34257812 5.01195312 -9 5 C-9 4.01 -9 3.02 -9 2 C-6.94921875 1.77213542 -4.8984375 1.54427083 -2.84765625 1.31640625 C-0.98859771 1.18113386 -0.98859771 1.18113386 0 0 Z " fill="#0E0E0E" transform="translate(24,162)"/>
<path d="M0 0 C1.93742341 -0.02703381 3.87495479 -0.04641125 5.8125 -0.0625 C6.89144531 -0.07410156 7.97039062 -0.08570313 9.08203125 -0.09765625 C12 0 12 0 15 1 C14.67 1.99 14.34 2.98 14 4 C11.85270859 3.71926927 9.70716807 3.42511501 7.5625 3.125 C6.36753906 2.96257812 5.17257812 2.80015625 3.94140625 2.6328125 C2.97074219 2.42398438 2.00007813 2.21515625 1 2 C0.67 1.34 0.34 0.68 0 0 Z " fill="#DADADA" transform="translate(266,163)"/>
<path d="M0 0 C0.66 0.33 1.32 0.66 2 1 C-0.18517099 3.40575607 -2.25919671 4.79535581 -5.1875 6.1875 C-5.90292969 6.53167969 -6.61835937 6.87585938 -7.35546875 7.23046875 C-7.89816406 7.48441406 -8.44085938 7.73835937 -9 8 C-9.33 7.01 -9.66 6.02 -10 5 C-8.38007835 4.13624104 -6.75388139 3.28424146 -5.125 2.4375 C-4.22007813 1.96183594 -3.31515625 1.48617187 -2.3828125 0.99609375 C-1.20332031 0.50302734 -1.20332031 0.50302734 0 0 Z " fill="#1C1C1C" transform="translate(122,126)"/>
<path d="M0 0 C0.99 0.495 0.99 0.495 2 1 C2.4140625 4.16015625 2.4140625 4.16015625 2.625 8.0625 C2.69976562 9.35285156 2.77453125 10.64320313 2.8515625 11.97265625 C2.90054688 12.97167969 2.94953125 13.97070312 3 15 C2.01 15.33 1.02 15.66 0 16 C0 10.72 0 5.44 0 0 Z " fill="#CCCCCC" transform="translate(86,179)"/>
<path d="M0 0 C0.28875 0.598125 0.5775 1.19625 0.875 1.8125 C2.04742026 4.19327792 2.04742026 4.19327792 4 7 C1.03 6.67 -1.94 6.34 -5 6 C-3.35 4.02 -1.7 2.04 0 0 Z " fill="#1F1F1F" transform="translate(79,178)"/>
<path d="M0 0 C0.99 0.99 1.98 1.98 3 3 C2.34 3.66 1.68 4.32 1 5 C3.31 5.33 5.62 5.66 8 6 C8 6.33 8 6.66 8 7 C4.7 7.33 1.4 7.66 -2 8 C-1.125 1.125 -1.125 1.125 0 0 Z " fill="#D0D0D0" transform="translate(253,178)"/>
<path d="M0 0 C2.625 -0.375 2.625 -0.375 6 0 C8.33753821 1.80053619 10.04068267 3.7607802 12 6 C11.67 6.99 11.34 7.98 11 9 C10.29875 8.236875 9.5975 7.47375 8.875 6.6875 C6.03647396 4.03409522 3.53050949 2.55999257 0 1 C0 0.67 0 0.34 0 0 Z " fill="#D8D8D8" transform="translate(72,167)"/>
<path d="M0 0 C0 0.66 0 1.32 0 2 C-3.21451269 3.60725635 -6.43612536 3.05748185 -10 3 C-10 2.34 -10 1.68 -10 1 C-6.52674819 -0.1577506 -3.63932552 -0.06866652 0 0 Z " fill="#1A1A1A" transform="translate(30,158)"/>
<path d="M0 0 C-0.33 1.65 -0.66 3.3 -1 5 C-2.98 5.33 -4.96 5.66 -7 6 C-7 5.34 -7 4.68 -7 4 C-2.52941176 0 -2.52941176 0 0 0 Z " fill="#E7E7E7" transform="translate(338,183)"/>
<path d="M0 0 C3.465 1.98 3.465 1.98 7 4 C7 4.33 7 4.66 7 5 C3.7 5.33 0.4 5.66 -3 6 C-2.01 4.68 -1.02 3.36 0 2 C0 1.34 0 0.68 0 0 Z " fill="#101010" transform="translate(46,179)"/>
<path d="M0 0 C1.84765625 0.33984375 1.84765625 0.33984375 4.0625 0.9375 C5.16271484 1.22947266 5.16271484 1.22947266 6.28515625 1.52734375 C7.13400391 1.76130859 7.13400391 1.76130859 8 2 C8 2.66 8 3.32 8 4 C6.02 4.66 4.04 5.32 2 6 C2 4.68 2 3.36 2 2 C1.01 1.67 0.02 1.34 -1 1 C-0.67 0.67 -0.34 0.34 0 0 Z " fill="#313131" transform="translate(274,130)"/>
<path d="M0 0 C1.231394 3.69418201 0.64432764 6.2056261 0 10 C-0.99 10.33 -1.98 10.66 -3 11 C-3.36923077 4.6 -3.36923077 4.6 -1.5 1.5625 C-1.005 1.046875 -0.51 0.53125 0 0 Z " fill="#1F1F1F" transform="translate(181,126)"/>
<path d="M0 0 C0.33 0.99 0.66 1.98 1 3 C-0.1446875 3.6496875 -0.1446875 3.6496875 -1.3125 4.3125 C-3.58093768 5.73686785 -5.2199723 7.03260097 -7 9 C-7.66 8.67 -8.32 8.34 -9 8 C-7.87811441 6.85111717 -6.75238316 5.70598863 -5.625 4.5625 C-4.99851562 3.92441406 -4.37203125 3.28632813 -3.7265625 2.62890625 C-2 1 -2 1 0 0 Z " fill="#1D1D1D" transform="translate(331,149)"/>
<path d="M0 0 C0.66 0.33 1.32 0.66 2 1 C-0.77280706 4.08089673 -3.06326356 5.68775452 -7 7 C-7.33 6.34 -7.66 5.68 -8 5 C-6.71475739 4.13619741 -5.42157581 3.28419631 -4.125 2.4375 C-3.04605469 1.72400391 -3.04605469 1.72400391 -1.9453125 0.99609375 C-1.30335937 0.66738281 -0.66140625 0.33867187 0 0 Z " fill="#1F1F1F" transform="translate(126,133)"/>
<path d="M0 0 C1.98 0 3.96 0 6 0 C5.34 1.65 4.68 3.3 4 5 C2 3.625 2 3.625 0 2 C0 1.34 0 0.68 0 0 Z " fill="#D5D5D5" transform="translate(269,166)"/>
<path d="M0 0 C1.5 1.3125 1.5 1.3125 3 3 C3 3.99 3 4.98 3 6 C0.525 5.01 0.525 5.01 -2 4 C-1.34 2.68 -0.68 1.36 0 0 Z " fill="#D8D8D8" transform="translate(290,178)"/>
<path d="M0 0 C1.98 0 3.96 0 6 0 C6 0.66 6 1.32 6 2 C5.34 2 4.68 2 4 2 C3.67 2.99 3.34 3.98 3 5 C1.5 3.625 1.5 3.625 0 2 C0 1.34 0 0.68 0 0 Z " fill="#D8D8D8" transform="translate(60,166)"/>
<path d="M0 0 C1.21236328 0.02707031 1.21236328 0.02707031 2.44921875 0.0546875 C3.37154297 0.08949219 3.37154297 0.08949219 4.3125 0.125 C4.3125 0.455 4.3125 0.785 4.3125 1.125 C2.3325 1.125 0.3525 1.125 -1.6875 1.125 C-1.6875 1.785 -1.6875 2.445 -1.6875 3.125 C-4.6575 2.63 -4.6575 2.63 -7.6875 2.125 C-4.48369983 -0.01086678 -3.66810033 -0.10632175 0 0 Z " fill="#121212" transform="translate(61.6875,164.875)"/>
<path d="M0 0 C1.32 0 2.64 0 4 0 C4.66 1.32 5.32 2.64 6 4 C5.01 4.495 5.01 4.495 4 5 C2 3.625 2 3.625 0 2 C0 1.34 0 0.68 0 0 Z " fill="#DDDDDD" transform="translate(49,201)"/>
<path d="M0 0 C0.66 0 1.32 0 2 0 C3.125 3.75 3.125 3.75 2 6 C1.01 6 0.02 6 -1 6 C-0.67 4.02 -0.34 2.04 0 0 Z " fill="#DCDCDC" transform="translate(196,128)"/>
</svg>
